<svg width="20" height="20" viewBox="0 0 20 20" fill="none" xmlns="http://www.w3.org/2000/svg">
<path fill-rule="evenodd" clip-rule="evenodd" d="M19.2397 7.1387H12.6732L10.6778 1.17324C10.5796 0.882566 10.3073 0.699219 9.9993 0.699219C9.69128 0.699219 9.41898 0.882566 9.32077 1.17324L7.32538 7.1387H0.714229C0.321403 7.1387 -9.88142e-06 7.46067 -9.88142e-06 7.8542C-9.88142e-06 7.89445 0.00445652 7.93916 0.0133794 7.97494C0.0223123 8.13145 0.0937352 8.30586 0.31247 8.48026L5.70942 12.2903L3.63813 18.3228C3.53546 18.6135 3.63813 18.9399 3.88366 19.1278C4.01311 19.2217 4.13364 19.3022 4.28542 19.3022C4.43273 19.3022 4.60682 19.2261 4.73181 19.1412L9.9993 15.3803L15.2668 19.1412C15.3918 19.2306 15.5659 19.3022 15.7132 19.3022C15.865 19.3022 15.9855 19.2261 16.1105 19.1278C16.3605 18.9399 16.4587 18.618 16.356 18.3228L14.2847 12.2903L19.637 8.44447L19.7665 8.33267C19.8825 8.20746 19.9986 8.03753 19.9986 7.85418C19.9986 7.46066 19.6325 7.13868 19.2397 7.13868L19.2397 7.1387Z" fill="#0D6B6A"/>
</svg>
